<?xml version="1.0" encoding="UTF-8"?>
<svg version="1.1" width="62.64mm" height="25.77mm" viewBox="-8.14 -12.43 62.64 25.77" fill-rule="nonzero" stroke-miterlimit="10" style="font-family: &apos;Times New Roman&apos;; font-weight:normal" xmlns="http://www.w3.org/2000/svg" xmlns:xlink="http://www.w3.org/1999/xlink">
<!--Created by TpX drawing tool-->
  <desc> Picturing 50 realisations of a 95%-confidence interval </desc>
  <polyline stroke="mediumblue" stroke-width="0.32" fill="none" points="1.00,5.31 1.00,-4.47"/>
  <polyline stroke="mediumblue" stroke-width="0.32" fill="none" points="2.00,6.78 2.00,-3.98"/>
  <polyline stroke="mediumblue" stroke-width="0.32" fill="none" points="3.00,3.25 3.00,-6.65"/>
  <polyline stroke="mediumblue" stroke-width="0.32" fill="none" points="4.00,9.73 4.00,0.99"/>
  <polyline stroke="mediumblue" stroke-width="0.32" fill="none" points="5.00,3.07 5.00,-7.61"/>
  <polyline stroke="mediumblue" stroke-width="0.32" fill="none" points="6.00,6.59 6.00,-3.48"/>
  <polyline stroke="mediumblue" stroke-width="0.32" fill="none" points="7.00,2.38 7.00,-9.01"/>
  <polyline stroke="mediumblue" stroke-width="0.32" fill="none" points="8.00,8.78 8.00,-0.47"/>
  <polyline stroke="mediumblue" stroke-width="0.32" fill="none" points="9.00,1.54 9.00,-8.72"/>
  <polyline stroke="mediumblue" stroke-width="0.32" fill="none" points="10.00,2.23 10.00,-7.71"/>
  <polyline stroke="mediumblue" stroke-width="0.32" fill="none" points="11.00,5.39 11.00,-4.57"/>
  <polyline stroke="mediumblue" stroke-width="0.32" fill="none" points="12.00,5.69 12.00,-3.74"/>
  <polyline stroke="mediumblue" stroke-width="0.32" fill="none" points="13.00,3.40 13.00,-5.20"/>
  <polyline stroke="mediumblue" stroke-width="0.32" fill="none" points="14.00,6.96 14.00,-2.44"/>
  <polyline stroke="mediumblue" stroke-width="0.32" fill="none" points="15.00,4.60 15.00,-5.96"/>
  <polyline stroke="mediumblue" stroke-width="0.32" fill="none" points="16.00,-1.33 16.00,-10.43"/>
  <polyline stroke="mediumblue" stroke-width="0.32" fill="none" points="17.00,7.29 17.00,-2.27"/>
  <polyline stroke="mediumblue" stroke-width="0.32" fill="none" points="18.00,4.31 18.00,-4.84"/>
  <polyline stroke="mediumblue" stroke-width="0.32" fill="none" points="19.00,10.71 19.00,-0.24"/>
  <polyline stroke="mediumblue" stroke-width="0.32" fill="none" points="20.00,5.94 20.00,-4.27"/>
  <polyline stroke="mediumblue" stroke-width="0.32" fill="none" points="21.00,3.44 21.00,-5.58"/>
  <polyline stroke="mediumblue" stroke-width="0.32" fill="none" points="22.00,4.06 22.00,-6.86"/>
  <polyline stroke="mediumblue" stroke-width="0.32" fill="none" points="23.00,1.35 23.00,-9.22"/>
  <polyline stroke="mediumblue" stroke-width="0.32" fill="none" points="24.00,6.75 24.00,-2.39"/>
  <polyline stroke="mediumblue" stroke-width="0.32" fill="none" points="25.00,1.44 25.00,-7.95"/>
  <polyline stroke="mediumblue" stroke-width="0.32" fill="none" points="26.00,3.64 26.00,-5.77"/>
  <polyline stroke="mediumblue" stroke-width="0.32" fill="none" points="27.00,3.01 27.00,-7.31"/>
  <polyline stroke="mediumblue" stroke-width="0.32" fill="none" points="28.00,4.69 28.00,-5.37"/>
  <polyline stroke="mediumblue" stroke-width="0.32" fill="none" points="29.00,8.07 29.00,-3.58"/>
  <polyline stroke="mediumblue" stroke-width="0.32" fill="none" points="30.00,2.35 30.00,-7.17"/>
  <polyline stroke="mediumblue" stroke-width="0.32" fill="none" points="31.00,7.25 31.00,-1.85"/>
  <polyline stroke="mediumblue" stroke-width="0.32" fill="none" points="32.00,2.78 32.00,-6.75"/>
  <polyline stroke="mediumblue" stroke-width="0.32" fill="none" points="33.00,4.31 33.00,-5.46"/>
  <polyline stroke="mediumblue" stroke-width="0.32" fill="none" points="34.00,0.27 34.00,-8.85"/>
  <polyline stroke="mediumblue" stroke-width="0.32" fill="none" points="35.00,4.00 35.00,-5.05"/>
  <polyline stroke="mediumblue" stroke-width="0.32" fill="none" points="36.00,6.18 36.00,-4.76"/>
  <polyline stroke="mediumblue" stroke-width="0.32" fill="none" points="37.00,7.66 37.00,-2.16"/>
  <polyline stroke="mediumblue" stroke-width="0.32" fill="none" points="38.00,3.97 38.00,-5.21"/>
  <polyline stroke="mediumblue" stroke-width="0.32" fill="none" points="39.00,6.28 39.00,-3.57"/>
  <polyline stroke="mediumblue" stroke-width="0.32" fill="none" points="40.00,11.34 40.00,1.63"/>
  <polyline stroke="mediumblue" stroke-width="0.32" fill="none" points="41.00,1.82 41.00,-8.05"/>
  <polyline stroke="mediumblue" stroke-width="0.32" fill="none" points="42.00,5.67 42.00,-3.57"/>
  <polyline stroke="mediumblue" stroke-width="0.32" fill="none" points="43.00,1.52 43.00,-9.60"/>
  <polyline stroke="mediumblue" stroke-width="0.32" fill="none" points="44.00,8.48 44.00,-2.60"/>
  <polyline stroke="mediumblue" stroke-width="0.32" fill="none" points="45.00,6.38 45.00,-2.93"/>
  <polyline stroke="mediumblue" stroke-width="0.32" fill="none" points="46.00,2.60 46.00,-6.18"/>
  <polyline stroke="mediumblue" stroke-width="0.32" fill="none" points="47.00,1.66 47.00,-7.99"/>
  <polyline stroke="mediumblue" stroke-width="0.32" fill="none" points="48.00,5.37 48.00,-3.75"/>
  <polyline stroke="mediumblue" stroke-width="0.32" fill="none" points="49.00,7.81 49.00,-1.59"/>
  <polyline stroke="mediumblue" stroke-width="0.32" fill="none" points="50.00,5.60 50.00,-4.63"/>
  <text x="-4.00" y="1.00" font-size="4.00" xml:space="preserve" text-anchor="end" fill="black" font-family="Times New Roman, serif">μ</text>
  <polyline stroke="mediumvioletred" stroke-width="0.32" stroke-dasharray="0.6,0.5" fill="none" points="-2.50,0.00 52.50,0.00"/>
</svg>